# xmcd CD database file
#
# Track frame offsets:
#	150
#	24108
#	42563
#	64858
#	89693
#	125210
#	140748
#	167468
#	187753
#	209538
#
# Disc length: 3077 seconds
#
# Revision: 0
# Processed by: cddbd v1.4PL0 Copyright (c) Steve Scherf et al.
# Submitted via: CDex 1.50beta10
#
DISCID=900c030a
DTITLE=Dick Johnson - Dick Johnson Plays
DYEAR=1979
DGENRE=Jazz
TTITLE0=All The Things You Are-I'm Old Fashioned
TTITLE1=Donna Lee
TTITLE2=The Star Crossed Lovers
TTITLE3=Kelly Green
TTITLE4=When the World Was Young
TTITLE5=Who Cares
TTITLE6=Kelly Blue
TTITLE7=In A Sentimental Mood
TTITLE8=Everything I Love
TTITLE9=Get Out of Town
EXTD=YEAR: 1979
EXTT0=
EXTT1=
EXTT2=
EXTT3=
EXTT4=
EXTT5=
EXTT6=
EXTT7=
EXTT8=
EXTT9=
PLAYORDER=
